<svg width="90" height="28" viewBox="0 0 90 28" fill="none" xmlns="http://www.w3.org/2000/svg">
<path d="M18.8155 15.4132C18.9973 15.3069 19.2046 15.1734 19.3864 15.0663C19.9641 14.6592 20.4942 14.1848 20.9661 13.6525C20.7336 12.2118 20.2037 10.8391 19.412 9.62697C19.4086 9.62685 19.4052 9.62746 19.4021 9.62874C19.3989 9.63002 19.396 9.63196 19.3936 9.63443C19.3912 9.63691 19.3894 9.63986 19.3881 9.64311C19.3869 9.64636 19.3863 9.64984 19.3864 9.65333C19.1067 9.97215 18.7936 10.2581 18.4528 10.5061C18.295 10.6309 18.1306 10.7466 17.9604 10.8529C17.8934 10.8773 17.8307 10.9126 17.7747 10.9576C17.8507 11.0923 17.9116 11.2355 17.9564 11.3843C18.1374 11.8902 18.2935 12.3969 18.4488 12.93C18.6386 13.7456 18.7612 14.5763 18.8155 15.4132Z" fill="white"/>
<path d="M21.1205 18.2674C21.12 18.2649 21.12 18.2623 21.1205 18.2598V18.2674Z" fill="white"/>
<path d="M19.3847 19.2259C19.9231 18.8569 20.434 18.4471 20.9132 18C21.0483 17.3686 21.1263 16.7257 21.1462 16.0795C21.1461 15.5451 21.1194 15.0111 21.0661 14.4795C20.5676 15.0086 20.0021 15.4662 19.3847 15.8397C19.2084 15.9473 19.0266 16.0452 18.8403 16.133V16.2665C18.8464 17.3721 18.7156 18.474 18.4512 19.5456C18.4247 19.628 18.3991 19.7054 18.3711 19.8134C18.3967 19.7862 18.4223 19.7862 18.4512 19.759C18.7731 19.602 19.0849 19.4239 19.3847 19.2259Z" fill="white"/>
<path d="M22.122 11.3432C21.8006 10.034 21.2009 8.81443 20.3662 7.77246C20.2542 8.26379 20.0541 8.7293 19.7761 9.14507C20.582 10.2856 21.1541 11.5829 21.4575 12.958C21.7555 12.4566 21.9795 11.9124 22.122 11.3432Z" fill="white"/>
<path d="M18.1396 16.4775C18.0883 16.5047 18.0107 16.5311 17.9586 16.5599C17.7256 16.6423 17.5183 16.7198 17.2845 16.7997C16.9482 16.906 16.5847 17.0131 16.222 17.093C15.9634 17.1465 15.704 17.1993 15.4213 17.2528C14.896 17.3242 14.3674 17.368 13.8376 17.3838V20.9266C14.3672 20.9232 14.8958 20.8789 15.4189 20.7939C15.704 20.7404 15.9634 20.6868 16.2196 20.6291C16.5823 20.5229 16.9202 20.4166 17.2821 20.2831C17.3902 20.2501 17.4946 20.2054 17.5935 20.1496C17.7444 19.624 17.8655 19.0897 17.9562 18.5496C18.0708 17.865 18.1321 17.1722 18.1396 16.4775Z" fill="white"/>
<path d="M17.3631 20.8535C17.3366 20.8535 17.311 20.8799 17.283 20.8799C16.9363 21.0111 16.5813 21.1179 16.2205 21.1996L15.4431 21.3594H15.4175C14.8937 21.4357 14.3651 21.4715 13.8362 21.4665V22.6859C14.9252 22.6449 15.9976 22.3977 16.9996 21.9567L16.8939 21.9979C17.0236 21.7035 17.153 21.4099 17.2822 21.1172C17.311 21.0134 17.3366 20.9326 17.3631 20.8535Z" fill="white"/>
<path d="M17.2845 9.86695C17.3886 10.0795 17.4662 10.2665 17.5703 10.4536L17.9586 10.2163C18.129 10.1008 18.2933 9.97619 18.451 9.84306C18.6858 9.65087 18.9027 9.43655 19.0988 9.20289C18.8967 8.93334 18.6805 8.67535 18.451 8.43008C18.2957 8.27024 18.114 8.10959 17.9586 7.94975C17.7454 7.74881 17.5203 7.5617 17.2845 7.3895C17.0259 7.2033 16.7665 7.0171 16.507 6.85645C16.4152 6.9157 16.32 6.96934 16.222 7.0171C16.0146 7.14975 15.756 7.22967 15.4446 7.31041C15.725 7.60037 15.9848 7.91068 16.222 8.23894C16.6145 8.75404 16.9696 9.29818 17.2845 9.86695Z" fill="white"/>
<path d="M14.8233 7.43945C14.5374 7.46664 14.2011 7.49301 13.8376 7.52184V11.6009C14.3707 11.5552 14.8995 11.4663 15.4189 11.3348C15.693 11.2829 15.9613 11.2026 16.2196 11.0951C16.479 11.0127 16.7384 10.8817 16.997 10.7746C16.7692 10.2689 16.5095 9.77897 16.2196 9.30804C15.9827 8.89616 15.715 8.5039 15.4189 8.13482C15.2342 7.8909 15.0352 7.65869 14.8233 7.43945Z" fill="white"/>
<path d="M17.9586 14.0271C17.8082 13.1547 17.5826 12.2977 17.2845 11.4665C17.2588 11.3841 17.2324 11.3338 17.2044 11.2539C16.8872 11.4143 16.5578 11.548 16.2196 11.6535C15.9568 11.7401 15.6895 11.8114 15.4189 11.8669C14.9013 12.0029 14.3714 12.0833 13.8376 12.1066V16.7468C14.3686 16.7476 14.8983 16.6941 15.4189 16.587C15.6904 16.562 15.9587 16.5085 16.2196 16.4271C16.5812 16.3484 16.9364 16.2413 17.2821 16.1066C17.511 16.0296 17.736 15.9408 17.9562 15.8405C18.0146 15.8087 18.075 15.7812 18.1372 15.7581C18.1139 15.174 18.0363 14.5833 17.9586 14.0271Z" fill="white"/>
<path d="M21.3535 17.8393V17.8466C21.3535 17.8409 21.3592 17.8369 21.3617 17.832L21.3535 17.8393Z" fill="white"/>
<path d="M9.14819 15.973C9.79129 16.2407 10.4601 16.4376 11.1434 16.5605C11.8038 16.6721 12.4701 16.7433 13.1387 16.7739V12.1065C12.4665 12.1096 11.7964 12.0283 11.1434 11.8643C10.6967 11.7617 10.2621 11.6098 9.84716 11.4111C9.38038 12.8266 9.17381 14.373 9.14819 15.973Z" fill="white"/>
<path d="M13.1387 21.4391C12.4672 21.3961 11.8 21.2983 11.1435 21.1466C10.7023 21.0395 10.2363 20.906 9.82161 20.7725C10.2884 20.7997 10.7023 20.8269 11.1435 20.8549C11.7912 20.8813 12.439 20.9077 13.1387 20.9373V17.3839C12.4677 17.3511 11.8004 17.2619 11.1435 17.1169C10.4544 16.967 9.78475 16.7344 9.14826 16.424V16.5303C9.17388 17.8906 9.06819 18.5077 9.17388 19.8111C8.78354 18.6359 8.5992 17.3987 8.62943 16.1571C7.78513 15.7101 7.03624 15.0938 6.42683 14.3445C7.08671 14.9284 7.8295 15.4049 8.62943 15.7575C8.65506 15.2516 8.7095 14.7449 8.75914 14.2111C8.90652 13.1963 9.14069 12.1969 9.45891 11.2245C8.72046 10.8527 8.06588 10.3259 7.53734 9.678C8.13841 10.2086 8.82144 10.6322 9.55819 10.9311C9.94651 9.86503 10.4653 8.82445 11.1395 7.94453C11.3259 7.6864 11.5338 7.44546 11.7608 7.22445C11.5485 7.12903 11.3411 7.02233 11.1395 6.90478C10.8468 6.72793 10.5777 6.51274 10.3388 6.26461H10.3645C10.6094 6.412 10.8707 6.52846 11.1427 6.61147C11.8575 6.82953 12.5998 6.93726 13.3453 6.93114C14.2524 6.93114 14.9258 6.82486 15.4182 6.61147C15.7341 6.51298 16.0134 6.31786 16.2188 6.05205C16.3191 5.9338 16.3743 5.78219 16.3743 5.62527C16.3743 5.46835 16.3191 5.31675 16.2188 5.1985C16.1999 5.14336 16.1635 5.09636 16.1156 5.06503C15.9466 4.90025 15.8497 4.79561 15.8001 4.73547C14.483 4.3723 13.1024 4.32586 11.765 4.59975C10.4277 4.87364 9.16955 5.46051 8.08796 6.31494C7.00637 7.16938 6.13034 8.26845 5.52768 9.52711C4.92503 10.7858 4.6119 12.1702 4.61255 13.5734C4.61255 18.4879 8.40685 22.492 13.1387 22.6848V21.4391Z" fill="white"/>
<path d="M13.1389 11.6265V7.52025C12.8068 7.49326 12.4774 7.43815 12.1541 7.35547C11.7834 7.74297 11.4454 8.16219 11.1437 8.60861C10.6444 9.37953 10.2434 10.2133 9.95068 11.0894C10.3408 11.2238 10.7394 11.3306 11.1437 11.409C11.8002 11.5484 12.4685 11.6212 13.1389 11.6265Z" fill="white"/>
<path d="M19.3846 19.9205C19.0732 20.0804 18.7625 20.2666 18.451 20.4C18.3538 20.4393 18.2587 20.4839 18.166 20.5335C18.0859 20.7205 18.0363 20.9331 17.9586 21.1201C17.9074 21.2775 17.8313 21.4101 17.7793 21.5667C18.8271 20.9748 19.7488 20.1724 20.4895 19.207C20.1548 19.4707 19.7689 19.6824 19.3846 19.9205Z" fill="white"/>
<path d="M21.5378 17.4668L21.5264 17.5046C21.5321 17.492 21.5378 17.4794 21.5427 17.4668H21.5378Z" fill="white"/>
<path d="M17.026 5.20065C17.1061 5.70734 17.0516 6.1333 16.8442 6.45379C16.9996 6.53618 17.1301 6.63999 17.2846 6.71991C17.5184 6.88469 17.7258 7.0404 17.9587 7.2266C18.1141 7.36007 18.2958 7.49354 18.4512 7.65338C18.7629 7.94669 19.0741 8.26663 19.3847 8.61321C19.4044 8.65367 19.4316 8.68977 19.4648 8.7195C19.7337 8.31809 19.9339 7.87223 20.0565 7.40127C19.2101 6.44955 18.1787 5.69164 17.0292 5.17676L17.026 5.20065Z" fill="white"/>
<path d="M21.2239 18.0801V18.089L21.2291 18.0801H21.2239Z" fill="white"/>
<path d="M22.3894 13.574C22.3895 13.2161 22.3691 12.8584 22.3286 12.5029C22.1437 12.9684 21.9032 13.4085 21.6128 13.8129C21.7425 14.5594 21.7681 15.333 21.7681 16.1594C21.7681 16.4634 21.7441 16.7674 21.7201 17.0483C22.1631 15.9468 22.3906 14.7661 22.3894 13.574Z" fill="white"/>
<path d="M4.81982 26.2927C5.62048 26.3463 6.53002 26.5333 7.38592 26.3463C8.26664 26.1864 9.01846 25.6789 9.89918 25.2801L12.7759 24.8525C11.8952 25.3329 11.0946 25.4392 10.1842 26.0793C7.59329 27.84 6.19375 27.2797 4.81982 26.2927Z" fill="white"/>
<path d="M2.02148 23.627C3.31694 24.2399 4.32817 24.717 5.80458 24.773C6.89267 24.8265 7.87747 24.7203 9.40753 25.1462C8.11207 25.2805 6.27216 25.7328 5.02794 25.573C4.38021 25.4667 3.75891 25.1734 3.21446 24.9065L2.02148 23.627Z" fill="white"/>
<path d="M5.31226 21.7598C5.62371 22.3727 5.90874 23.12 6.27304 23.6267C7.05048 24.6665 8.13857 24.8798 9.2795 25.1995C8.57973 24.6401 7.87916 24.0527 7.18018 23.4932L5.31226 21.7598Z" fill="white"/>
<path d="M1.04077 16.9062C1.09281 18.6125 1.04077 19.0665 1.89587 20.4795L2.80221 21.333C2.28018 19.4669 2.09924 18.6125 1.04077 16.9062Z" fill="white"/>
<path d="M0.777338 20.4795C1.57799 22.1059 1.50353 22.2921 3.29059 23.2807L5.36429 23.7059C4.63809 23.2264 3.44272 22.5862 3.08322 22.3464C2.69491 22.1059 0.62201 20.4795 0.777338 20.4795Z" fill="white"/>
<path d="M3.34277 19.1963C3.42284 21.5427 3.39482 21.5155 4.94969 23.4097C4.53575 21.8657 4.04255 20.6389 3.34277 19.1963Z" fill="white"/>
<path d="M9.56226 27.9464L10.3917 28C11.0659 26.7995 12.0243 26.2393 13.2685 25.6263L13.7345 25.3594C11.8169 25.3594 10.3141 26.6117 9.56226 27.9464Z" fill="white"/>
<path d="M22.2341 26.2927C21.4334 26.3463 20.5527 26.5333 19.672 26.3463C18.7913 26.1864 18.0395 25.6789 17.1587 25.2801L14.3076 24.8525C15.1883 25.3329 15.9666 25.4392 16.8737 26.0793C19.4614 27.84 20.861 27.2797 22.2341 26.2927Z" fill="white"/>
<path d="M25.0332 23.627C23.7369 24.2399 22.7265 24.7203 21.2757 24.773C20.1868 24.8265 19.1764 24.7203 17.6479 25.1462C18.9434 25.2805 20.7833 25.7328 22.0275 25.573C22.7009 25.4667 23.2966 25.1734 23.841 24.9065L25.0332 23.627Z" fill="white"/>
<path d="M21.7683 21.7598C21.4313 22.3727 21.1718 23.12 20.7835 23.6267C20.0061 24.6665 18.9172 24.8815 17.7747 25.1995C18.4744 24.6401 19.1742 24.0527 19.874 23.4932L21.7683 21.7598Z" fill="white"/>
<path d="M26.0213 16.9062C25.9692 18.6125 26.0213 19.0665 25.1918 20.4795L24.2847 21.333C24.7739 19.4669 24.9556 18.6125 26.0213 16.9062Z" fill="white"/>
<path d="M26.3022 20.4795C25.5015 22.1059 25.5512 22.2921 23.7897 23.2807L21.6904 23.7067C22.4414 23.2272 23.608 22.587 23.9971 22.3473C24.359 22.1059 26.4327 20.4795 26.3022 20.4795Z" fill="white"/>
<path d="M23.7114 19.1963C23.6313 21.5427 23.6594 21.5155 22.1045 23.4097C22.5457 21.8657 23.0381 20.6389 23.7114 19.1963Z" fill="white"/>
<path d="M17.4926 27.9464L16.6623 28C15.989 26.7995 15.0306 26.2393 13.812 25.6263L13.3196 25.3594C15.2371 25.3594 16.7408 26.6117 17.4926 27.9464Z" fill="white"/>
<path d="M24.697 11.3071V11.0665C24.7219 11.1768 24.7753 11.2781 24.8515 11.3598C24.9959 11.4615 25.1533 11.5421 25.3191 11.5996L25.2927 11.6531C25.1053 11.6115 24.9286 11.5298 24.7739 11.4134C24.7482 11.387 24.7226 11.331 24.6938 11.3071H24.697ZM24.697 10.4264C24.7226 10.3201 24.8003 10.2402 24.9036 10.1331C25.0422 10.0221 25.2008 9.94058 25.3703 9.89331C25.5728 9.83796 25.7831 9.81983 25.9917 9.83975C26.1436 9.84329 26.2899 9.89995 26.4064 10.0004C26.5135 10.1027 26.5939 10.231 26.6402 10.3736C26.6701 10.5332 26.6613 10.6979 26.6146 10.8531C26.5206 11.0259 26.387 11.1724 26.2254 11.2799V11.3335L26.9508 11.0665L26.9244 11.013C26.8798 11.0198 26.8342 11.0105 26.7955 10.9866C26.7691 10.9602 26.7435 10.9602 26.7435 10.9042V10.7971C26.7823 10.6398 26.7823 10.4749 26.7435 10.3176C26.6634 10.1042 26.5881 9.91802 26.4328 9.78455C26.2848 9.64626 26.1074 9.54553 25.9148 9.49042C25.699 9.46 25.4797 9.4692 25.2671 9.51761C25.0408 9.58606 24.8414 9.72617 24.697 9.91802V10.4239V10.4264ZM24.697 8.77363V8.29331L25.163 7.67951L24.697 7.70669V7.57322L25.6578 7.49083L25.6834 7.51802L24.6994 8.77116L24.697 8.77363ZM27.1838 13.7335L26.6658 13.8159V13.759C26.7302 13.7416 26.7916 13.7138 26.8476 13.6766C26.9092 13.6427 26.9554 13.5853 26.9765 13.5168C26.9999 13.4484 27.0089 13.3757 27.0029 13.3034L26.9765 12.9837L25.2951 13.1164C25.2046 13.1281 25.1168 13.156 25.0357 13.1988C24.9998 13.2637 24.9819 13.3375 24.9836 13.4122V13.4945H24.9324L24.8523 12.5339L24.9044 12.5075L24.9308 12.5899C24.9308 12.697 24.9564 12.7769 25.0341 12.8033C25.0597 12.8297 25.1374 12.8297 25.2679 12.8033L26.9492 12.6698L26.9228 12.3765C26.9211 12.3024 26.9036 12.2296 26.8716 12.1631C26.861 12.1322 26.8439 12.1041 26.8215 12.0809C26.799 12.0577 26.7718 12.0399 26.7419 12.0288C26.6692 11.9929 26.5895 11.9749 26.5089 11.9761V11.9226L27.0269 11.8954L27.1838 13.7335ZM24.697 7.57322V7.70669L24.2038 7.76025L24.5665 8.45314L24.697 8.29331V8.77363L24.4112 9.11967C24.3404 9.21064 24.2795 9.30927 24.2294 9.4138C24.2216 9.49738 24.2398 9.58135 24.2815 9.65355L24.2014 9.67992L23.8131 8.87992L23.8643 8.85355C23.8907 8.93594 23.9444 8.9862 23.9692 8.9862C24.0204 9.01339 24.0493 9.01339 24.0717 8.9862C24.1396 8.94243 24.2008 8.88857 24.2534 8.82636L24.46 8.53388L24.0717 7.76025L23.6834 7.78661C23.6218 7.80054 23.5611 7.81843 23.5016 7.84017V7.65314H23.6834L24.6946 7.57075L24.697 7.57322ZM24.697 9.92049V10.4264C24.6706 10.4536 24.6706 10.5088 24.6442 10.5335C24.6148 10.6843 24.6239 10.8404 24.6706 10.9866C24.6684 11.0015 24.6697 11.0167 24.6743 11.031C24.6789 11.0453 24.6866 11.0583 24.697 11.069V11.3096C24.5977 11.195 24.5263 11.0578 24.4888 10.9092C24.4363 10.7483 24.4229 10.5767 24.45 10.4093C24.4771 10.2419 24.5438 10.084 24.6442 9.94933C24.6706 9.94933 24.6706 9.92297 24.697 9.92297V9.92049ZM23.504 6.42636V6.24016L23.5841 6.32255C23.6353 6.42884 23.7386 6.45602 23.8683 6.48239C23.9304 6.48375 23.9921 6.47219 24.0498 6.44841C24.1074 6.42462 24.1598 6.3891 24.2038 6.34398C24.2771 6.29253 24.3318 6.21747 24.3591 6.13059C24.4037 6.04988 24.4219 5.95662 24.4112 5.86447C24.3927 5.78627 24.3574 5.71334 24.3079 5.65108L24.1526 5.49125L23.504 6.0243V5.60247L23.7634 5.38908C23.8667 5.30669 23.9452 5.22925 23.9452 5.17569C23.9367 5.10667 23.9089 5.04167 23.8651 4.98867L23.8139 4.93594L23.8651 4.88239L24.3855 5.52008C24.4915 5.64393 24.5709 5.78934 24.6185 5.94686C24.6668 6.06495 24.6759 6.19617 24.6442 6.32008C24.6142 6.4422 24.5512 6.55306 24.4624 6.63975C24.3978 6.6934 24.3232 6.73292 24.2432 6.75587C24.1632 6.77882 24.0795 6.78472 23.9972 6.77322C23.8212 6.73206 23.6649 6.62817 23.5561 6.47992C23.5304 6.45355 23.5304 6.42636 23.504 6.42636ZM23.504 4.39959V4.3172L23.5841 4.36993L23.5577 4.42348L23.504 4.39959ZM23.504 4.3172V4.36993C23.424 4.3172 23.3487 4.28754 23.2967 4.3172C23.2454 4.3172 23.1934 4.36993 23.1149 4.47703L22.8827 4.77034V4.23975V4.07992L23.1149 3.97364L23.504 4.32049V4.3172ZM23.504 5.5967V6.02348L23.424 6.07621C23.4504 6.12976 23.476 6.18332 23.504 6.23687V6.42636C23.4784 6.4 23.4784 6.37364 23.4528 6.32008C23.4272 6.26653 23.3727 6.21298 23.3487 6.16025L22.8827 6.55984V6.13306L23.504 5.60247V5.5967ZM23.504 7.64985V7.83687C23.4528 7.86323 23.4528 7.89042 23.424 7.91926C23.4316 7.99648 23.4592 8.07018 23.504 8.13265L23.4528 8.15901L23.1149 7.54686L23.1669 7.52049C23.219 7.57322 23.271 7.62678 23.2967 7.62678C23.3633 7.65015 23.4339 7.65913 23.504 7.65314V7.64985ZM22.8827 4.07992V4.23975L21.0412 5.14603L20.9884 5.11885L21.5376 3.06653L20.5768 4.23975C20.4968 4.34686 20.4471 4.42678 20.4471 4.48033C20.4471 4.53388 20.4992 4.58661 20.5512 4.66653L20.6313 4.69372L20.5792 4.74645L20.2422 4.45397V4.32049H20.2942C20.3618 4.27627 20.4227 4.22215 20.4751 4.15984L21.4079 3.0138C21.4514 2.95707 21.4864 2.89405 21.512 2.82678C21.5376 2.77322 21.512 2.74439 21.512 2.69331C21.4619 2.64492 21.4169 2.59136 21.3775 2.53347L21.4031 2.50628L21.8963 2.90669L21.3775 4.80165L22.8811 4.08157L22.8827 4.07992ZM22.8827 4.26694L21.9219 5.4138C21.8419 5.52008 21.7922 5.57364 21.741 5.57364C21.7054 5.58191 21.6684 5.58136 21.633 5.57205C21.5977 5.56274 21.565 5.54493 21.5376 5.52008L21.4864 5.46653L21.46 5.49372L22.1597 6.13306L22.2118 6.07951L22.1597 6.02678C22.1272 6.00893 22.1002 5.98198 22.0819 5.94903C22.0637 5.91608 22.0548 5.87848 22.0564 5.84058C22.0752 5.75648 22.1206 5.68115 22.1853 5.62636L22.8859 4.77364V4.26694H22.8827ZM22.8827 6.13306V6.55984H22.8563C22.7522 6.66694 22.6753 6.71967 22.6753 6.77322C22.6792 6.84348 22.7076 6.90993 22.7554 6.96025L22.8083 7.04264L22.7554 7.069L22.1597 6.32255L22.2118 6.269L22.2638 6.35139C22.281 6.38502 22.3072 6.41294 22.3392 6.4319C22.3712 6.45086 22.4078 6.46008 22.4448 6.4585C22.4968 6.4585 22.5488 6.40494 22.6529 6.32503L22.8859 6.138L22.8827 6.13306ZM20.2406 3.25355C20.2811 3.19484 20.3159 3.13221 20.3446 3.06653C20.4207 2.93521 20.4674 2.78809 20.4812 2.63587C20.4951 2.48366 20.4758 2.33018 20.4247 2.18661C20.3973 2.04012 20.3351 1.90286 20.2438 1.78702L20.2406 3.25355ZM20.2406 1.78702V3.25355C20.1953 3.32106 20.1432 3.38347 20.0852 3.43975V2.71885C20.1885 2.45273 20.2149 2.23934 20.1653 2.05232C20.1625 1.97424 20.1343 1.8994 20.0852 1.83975V1.65355C20.1432 1.68975 20.1956 1.73475 20.2406 1.78702ZM20.2406 4.32049V4.45397L20.0852 4.32049V4.2381C20.1043 4.26165 20.1276 4.28106 20.154 4.29521C20.1804 4.30935 20.2093 4.31795 20.239 4.32049H20.2406ZM20.0852 1.65355V1.84058C20.0233 1.74294 19.9327 1.66819 19.8266 1.62719C19.7611 1.58668 19.6879 1.56095 19.612 1.55172C19.5361 1.54249 19.4592 1.54996 19.3863 1.57364V1.4138C19.5651 1.3944 19.7455 1.43147 19.9035 1.52008C19.9684 1.55799 20.0293 1.60272 20.0852 1.65355ZM20.0852 2.71967V3.43975C19.9608 3.55068 19.8203 3.64102 19.6689 3.70752C19.5763 3.7357 19.481 3.75365 19.3847 3.76107V3.57322C19.3991 3.57549 19.4138 3.57428 19.4277 3.56971C19.4416 3.56514 19.4543 3.55731 19.4647 3.54686C19.6465 3.46447 19.8282 3.25355 19.9835 2.93388C20.0278 2.86794 20.0625 2.7958 20.0868 2.71967H20.0852ZM20.0852 4.23975V4.32214L19.9819 4.23975L20.0332 4.18702L20.0852 4.23975ZM19.3863 1.4138V1.57364C19.3598 1.57364 19.3334 1.6 19.3062 1.6C19.0542 1.74504 18.8541 1.96942 18.7353 2.24016C18.5792 2.55984 18.528 2.85314 18.5792 3.12008C18.5911 3.21017 18.6269 3.29514 18.6827 3.36564C18.7385 3.43614 18.8121 3.48944 18.8955 3.51967C19.0508 3.62678 19.2069 3.62678 19.3887 3.57322V3.76025C19.2017 3.76613 19.0158 3.72956 18.8442 3.65314C18.5844 3.51361 18.3887 3.27402 18.2998 2.98661C18.2193 2.67313 18.2561 2.33998 18.4031 2.05314C18.4769 1.90546 18.5794 1.77489 18.7042 1.66948C18.8289 1.56406 18.9733 1.48603 19.1284 1.44016C19.2132 1.41698 19.3011 1.40808 19.3887 1.4138H19.3863ZM11.4293 1.70711V1.57364L11.7928 1.52008L11.4277 0.906282V0.346859L12.3885 1.86694C12.4389 1.96956 12.5095 2.06021 12.5959 2.13306C12.6674 2.1721 12.7507 2.18182 12.8289 2.16025V2.24264L11.9746 2.40247L11.9482 2.32008C12.0144 2.3085 12.0769 2.28019 12.1299 2.23769C12.1399 2.22682 12.1474 2.21377 12.1519 2.19951C12.1563 2.18524 12.1576 2.17014 12.1555 2.1553C12.1336 2.06989 12.0985 1.98866 12.0515 1.91473L11.8705 1.62225L11.4293 1.70463V1.70711ZM14.7993 1.67992L14.8505 1.70711L14.6432 2.32008L12.933 2.26653V2.21298H13.0363C13.0709 2.21646 13.1058 2.2107 13.1376 2.19627C13.1695 2.18184 13.1971 2.15922 13.218 2.13059C13.2557 2.04741 13.2735 1.95617 13.2701 1.86447L13.2909 0.400412C13.2948 0.308407 13.2769 0.2168 13.2388 0.133471C13.2182 0.104781 13.1907 0.0821025 13.1589 0.0676591C13.1272 0.0532157 13.0924 0.0475031 13.0579 0.0510814H12.9778V0L13.9618 0.0263646V0.0823893C13.8832 0.074806 13.8039 0.0837766 13.7288 0.108754C13.69 0.129779 13.655 0.157667 13.6255 0.191143C13.599 0.277029 13.59 0.367629 13.5991 0.457261L13.5791 1.89495C13.5791 1.97734 13.5791 2.05479 13.6047 2.08198C13.6047 2.10834 13.6311 2.10834 13.6568 2.13471C13.7423 2.15149 13.8291 2.16059 13.9162 2.16189H14.0715C14.193 2.17109 14.3152 2.16193 14.4342 2.13471C14.5045 2.10612 14.5668 2.0603 14.616 2.00124C14.6966 1.90819 14.7584 1.79951 14.7977 1.68157L14.7993 1.67992ZM18.1677 0.691246L18.0147 1.46653L17.9627 1.44016C17.9743 1.24068 17.9195 1.04307 17.8074 0.879918C17.7273 0.746447 17.6 0.666529 17.4182 0.612976C17.2812 0.586621 17.1406 0.586621 17.0035 0.612976C16.8542 0.668318 16.7258 0.771021 16.6368 0.906282C16.5335 1.03975 16.4559 1.25314 16.3774 1.49372C16.331 1.66735 16.3225 1.84938 16.3526 2.02678C16.3551 2.10248 16.3724 2.17688 16.4035 2.24553C16.4346 2.31419 16.4788 2.37569 16.5335 2.42636C16.6287 2.55469 16.7679 2.64075 16.9226 2.66694C17.047 2.71365 17.1817 2.7228 17.311 2.69331C17.4755 2.62404 17.6311 2.5344 17.7745 2.42636L17.801 2.45355C17.6758 2.61805 17.5049 2.73935 17.311 2.80124C17.1556 2.85396 16.9739 2.8276 16.7665 2.77405C16.4294 2.69166 16.1708 2.48074 16.0667 2.16107C15.972 1.91494 15.9539 1.64464 16.0147 1.38744C16.0948 1.17405 16.1708 0.960659 16.3262 0.800824C16.4643 0.663178 16.6331 0.56247 16.8178 0.507518C17.009 0.427511 17.223 0.427511 17.4142 0.507518C17.5818 0.537529 17.7359 0.621135 17.8546 0.746447C17.881 0.772812 17.9066 0.8 17.9347 0.8H18.0147C18.0668 0.772812 18.0948 0.717611 18.118 0.693718L18.1677 0.691246ZM11.4277 0.346859V0.906282L11.2724 0.666529L11.0394 1.6552L11.4277 1.57281V1.70628L11.0138 1.78867L10.9337 2.16189C10.9148 2.23131 10.9059 2.30321 10.9073 2.37528C10.9073 2.40165 10.9337 2.42801 10.9874 2.45767C11.013 2.48404 11.0907 2.48404 11.1948 2.45767V2.54006L10.5214 2.63646L10.4958 2.58373C10.5991 2.55654 10.6511 2.53017 10.6767 2.47662C10.7315 2.3668 10.7758 2.25173 10.8088 2.13306L11.2468 0.164779L11.298 0.13759L11.4277 0.350978V0.346859ZM8.8072 3.30711V2.63646L8.96733 3.06653C9.09113 3.05492 9.21299 3.02724 9.33003 2.98414C9.4861 2.93015 9.62205 2.82767 9.71915 2.69083C9.77039 2.55736 9.79921 2.42389 9.74477 2.31761C9.71741 2.23073 9.66277 2.15567 9.58944 2.10422C9.55252 2.06588 9.50783 2.0364 9.45856 2.01788C9.40929 1.99937 9.35665 1.99228 9.30441 1.99712C9.17158 2.00351 9.04055 2.03132 8.91609 2.07951C8.88967 2.10587 8.83603 2.10587 8.81121 2.13223V1.99959C8.82183 1.98939 8.83453 1.98173 8.84837 1.97717C8.86221 1.97261 8.87686 1.97127 8.89127 1.97322C9.00237 1.92556 9.10683 1.86295 9.20193 1.78702C9.26854 1.73412 9.31455 1.65842 9.33163 1.57364C9.33583 1.48384 9.3272 1.39391 9.30601 1.30669C9.28339 1.24961 9.24829 1.19867 9.20345 1.1578C9.1586 1.11694 9.1052 1.08726 9.0474 1.07106C8.9745 1.03576 8.89232 1.0262 8.81361 1.04387V0.879918C8.86645 0.879918 8.91849 0.853553 8.96974 0.853553C9.11288 0.825743 9.26093 0.855213 9.38367 0.935942C9.44016 0.958618 9.49071 0.994562 9.53131 1.04091C9.5719 1.08726 9.6014 1.14272 9.61747 1.20288C9.66453 1.30237 9.67394 1.41632 9.64389 1.52255C9.60813 1.64143 9.53488 1.74464 9.43572 1.81586C9.55752 1.80802 9.67979 1.81717 9.79921 1.84305C9.91648 1.89412 10.0122 1.98656 10.0691 2.10376C10.1261 2.22096 10.1405 2.35521 10.1099 2.48239C10.0804 2.61179 10.0054 2.72537 9.8993 2.80124C9.81923 2.90752 9.64068 2.98744 9.40689 3.06735L8.8072 3.30711ZM8.8072 0.879918V1.03975C8.71955 1.04736 8.63305 1.06533 8.54939 1.09331C8.46035 1.1323 8.37372 1.17687 8.28998 1.22678L8.60063 2.05067C8.64332 2.03925 8.68664 2.03044 8.73034 2.0243C8.75596 2.0243 8.78158 1.99712 8.81041 1.99712V2.13059C8.78478 2.13059 8.75916 2.13059 8.75916 2.15778C8.73912 2.15819 8.71941 2.16312 8.70143 2.17223C8.68344 2.18135 8.66762 2.19441 8.65508 2.2105L8.8072 2.63646V3.30381L8.44531 3.46282L8.41889 3.41009L8.49895 3.3829C8.56322 3.34462 8.61674 3.28983 8.65428 3.22389C8.65576 3.13218 8.6383 3.04119 8.60304 2.95695L8.08661 1.6C8.05695 1.51324 8.01338 1.4322 7.95771 1.36025C7.92912 1.34709 7.89815 1.34029 7.86683 1.34029C7.83552 1.34029 7.80455 1.34709 7.77596 1.36025V1.27786L8.5526 0.988671C8.63356 0.941425 8.72025 0.905411 8.81041 0.881565L8.8072 0.879918ZM7.77436 3.86653C7.82839 3.76496 7.87186 3.65781 7.90406 3.54686C7.95054 3.27277 7.90479 2.99057 7.77436 2.74686V3.86653ZM7.77436 1.28033V1.36272H7.74874L7.66867 1.38908L7.64305 1.36272V1.33635L7.77276 1.2828L7.77436 1.28033ZM7.77436 2.74686V3.86653C7.74012 3.93499 7.69643 3.99798 7.64465 4.05355V3.68033C7.67027 3.68033 7.67027 3.68033 7.67027 3.65314C7.67297 3.58106 7.66432 3.509 7.64465 3.43975V2.53347C7.67027 2.55984 7.69669 2.61586 7.72472 2.63975C7.7514 2.66947 7.76871 2.70682 7.77436 2.74686ZM7.64465 2.53347V3.43975C7.60142 3.24522 7.5316 3.05798 7.43728 2.88363C7.23071 2.53677 7.02334 2.34974 6.78955 2.26982C6.70019 2.23087 6.60213 2.21795 6.50611 2.23248C6.41008 2.24701 6.31979 2.28843 6.24511 2.35221C6.17838 2.37413 6.12263 2.42203 6.08978 2.48568V2.32008C6.1206 2.27086 6.16612 2.23328 6.21949 2.21298C6.45328 2.05314 6.71189 2.02678 7.02014 2.08033C7.26953 2.15802 7.4876 2.31707 7.64145 2.53347H7.64465ZM7.64465 3.68033C7.63481 3.77705 7.60412 3.87028 7.55481 3.95324C7.5055 4.03619 7.43881 4.10678 7.35962 4.15984C7.28246 4.20753 7.196 4.23707 7.10644 4.24633C7.01688 4.25559 6.92643 4.24434 6.8416 4.21339C6.6086 4.131 6.37481 3.92008 6.19387 3.59959C6.14405 3.53739 6.10848 3.46446 6.08978 3.3862V4.07992C6.2195 4.23433 6.39089 4.3456 6.58218 4.39959C6.89284 4.45397 7.15225 4.42678 7.41166 4.23975C7.50409 4.20021 7.58454 4.13592 7.64465 4.05355V3.68033ZM6.08978 5.20041V4.82636L6.19387 5.09331L6.08978 5.20041ZM6.08978 2.31679V2.47992C6.02041 2.57376 5.97573 2.68443 5.96007 2.80124C5.93445 2.96107 5.9857 3.17446 6.08978 3.38702V4.08074L5.93445 3.92091V2.45355C5.97941 2.40127 6.03177 2.35628 6.08978 2.32008V2.31679ZM6.08978 4.82307V5.19712L5.93445 5.32976V5.03975C5.95534 4.98936 5.96413 4.93454 5.96007 4.87992C5.96179 4.83398 5.95301 4.78827 5.93445 4.74645V4.53141L6.08978 4.82307ZM5.93445 2.45026V3.91679C5.93445 3.8896 5.90883 3.86323 5.88321 3.8105C5.79457 3.67508 5.73452 3.52204 5.70694 3.36125C5.67935 3.20046 5.68485 3.0355 5.72308 2.87703C5.77093 2.72484 5.84084 2.58096 5.93045 2.45026H5.93445ZM5.93445 4.53059V4.74315C5.92657 4.67055 5.90934 4.59934 5.88321 4.53141L5.93445 4.50422V4.53141V4.53059ZM5.93445 5.03646C5.93659 5.05129 5.93539 5.06643 5.93095 5.08072C5.92651 5.095 5.91894 5.10804 5.90883 5.11885C5.8484 5.22228 5.76932 5.31289 5.67584 5.38579L5.57176 5.49289C5.46847 5.60247 5.39001 5.65355 5.36439 5.67992H5.28432C5.23013 5.63849 5.17827 5.59393 5.12899 5.54645L4.19783 4.50669C4.09455 4.39959 4.04251 4.34686 4.04251 4.29331V4.82636L4.92323 5.7862C4.98034 5.837 5.02481 5.90113 5.05293 5.97322C5.05417 6.05235 5.02546 6.12887 4.97287 6.18661L4.8928 6.24016L4.94404 6.29372L5.92885 5.33306V5.03975L5.93445 5.03646ZM4.04251 7.62678V7.41504C4.1232 7.36776 4.19375 7.30414 4.24988 7.22801C4.29665 7.15951 4.33995 7.08856 4.37958 7.01545C4.40932 6.93864 4.4269 6.85741 4.43162 6.77487L4.04251 6.48156V6.05397C4.06813 6.07951 4.06813 6.10669 4.09455 6.10669L4.63819 6.50875C4.62915 6.64533 4.60222 6.78001 4.55813 6.90917C4.50463 7.0421 4.43495 7.16751 4.35076 7.28239C4.25362 7.40418 4.14962 7.51999 4.0393 7.62925L4.04251 7.62678ZM4.04251 4.18702V4.05355L4.17221 3.92008L4.19783 3.97364C4.13767 4.02774 4.08536 4.09044 4.04251 4.15984V4.18702ZM1.32028 11.8402L1.47561 11.8665C1.64389 11.8777 1.80973 11.9138 1.96801 11.9736C2.10018 12.0334 2.20941 12.1366 2.27866 12.2669C2.35873 12.3996 2.38275 12.5866 2.35873 12.8264C2.33471 13.0661 2.27866 13.2531 2.17778 13.3866C2.08308 13.5023 1.95668 13.5858 1.81508 13.6264C1.65207 13.6543 1.48569 13.6543 1.32268 13.6264V13.3067H1.711C1.79982 13.3043 1.88758 13.2862 1.97041 13.2531C2.02245 13.1996 2.10012 13.1469 2.12574 13.0661C2.18021 12.987 2.21587 12.8959 2.22982 12.8C2.2309 12.6537 2.20369 12.5086 2.14976 12.3732C2.10252 12.2686 2.0317 12.1771 1.94319 12.1063C1.78215 12.0571 1.61746 12.0216 1.45079 12H1.32188V11.8402H1.32028ZM4.04251 4.05355V4.29331V4.82636L3.93922 4.69619C3.83594 4.58661 3.78389 4.53141 3.73185 4.53141C3.69768 4.53075 3.66378 4.53778 3.63252 4.55201C3.60127 4.56624 3.57341 4.58733 3.5509 4.6138L3.47084 4.66735L3.44682 4.6138L4.04251 4.05438V4.05355ZM4.04251 6.05397V6.47992L3.9128 6.37364C3.85443 6.33456 3.79403 6.2988 3.73185 6.26653C3.68696 6.26235 3.64187 6.27181 3.60215 6.29372C3.57653 6.29372 3.52208 6.34645 3.47244 6.42636L3.4204 6.37364L3.93922 5.67992L3.99046 5.70711L3.96564 5.73347C3.9128 5.81586 3.88558 5.86694 3.9128 5.94686C3.95096 5.98863 3.99462 6.02468 4.04251 6.05397ZM4.04251 7.41339C4.00327 7.44702 3.9596 7.47476 3.9128 7.49578C3.75331 7.54621 3.58422 7.55555 3.4204 7.52297C3.23945 7.49578 3.0585 7.38867 2.87675 7.28239C2.68794 7.1352 2.5368 6.94291 2.43639 6.72214C2.39224 6.59684 2.3806 6.46186 2.40265 6.33051C2.42469 6.19917 2.47965 6.07602 2.5621 5.97322C2.61016 5.89145 2.67418 5.82083 2.75011 5.76581C2.82605 5.71078 2.91224 5.67256 3.00326 5.65355C3.15191 5.64638 3.30069 5.66447 3.44362 5.70711L3.49486 5.67992L2.89917 5.27951L2.84713 5.33306C2.89917 5.38661 2.92719 5.41545 2.92719 5.44016V5.49372C2.8974 5.52718 2.86218 5.55506 2.82311 5.57611C2.74205 5.63353 2.66425 5.6957 2.59012 5.76231L2.43479 5.92709C2.31053 6.08666 2.23801 6.28231 2.22742 6.48651C2.19182 6.72612 2.23734 6.97104 2.35633 7.18023C2.4347 7.36175 2.5616 7.51662 2.72223 7.62678C2.93004 7.78844 3.18898 7.86453 3.44842 7.84017C3.66372 7.83453 3.87195 7.75993 4.04411 7.62678V7.41504L4.04251 7.41339ZM1.32028 10.7469V10.5862L2.22742 10.8803C2.35633 10.9331 2.43479 10.9627 2.46041 10.9331C2.54048 10.9067 2.5637 10.8507 2.59012 10.7732L2.61654 10.6908L2.69661 10.7172L2.43799 11.4636L2.38595 11.4373L2.41237 11.3549C2.42797 11.3204 2.43376 11.282 2.42909 11.2443C2.42441 11.2065 2.40946 11.1709 2.38595 11.1415C2.32487 11.0915 2.25333 11.0568 2.17698 11.0402L1.32188 10.7469H1.32028ZM1.32028 10.2929V9.94686L2.51245 9.49289L1.32028 9.06694V8.93347H1.3459L3.10734 9.54645L3.08092 9.6L1.32028 10.2929ZM0.181749 12.2398L0.129706 12.2134L0.209772 11.4134H0.261814V11.5205C0.254925 11.5601 0.258751 11.6008 0.272873 11.6383C0.286995 11.6758 0.310868 11.7086 0.34188 11.7331C0.417228 11.7603 0.495431 11.7782 0.57487 11.7866L1.32668 11.8402V12L0.549249 11.9176C0.461935 11.9085 0.373739 11.9175 0.289837 11.944C0.264054 11.9673 0.243528 11.9961 0.229698 12.0284C0.215868 12.0607 0.209067 12.0957 0.209772 12.131L0.184151 12.2373L0.181749 12.2398ZM1.32188 13.6264H1.26984L0.414739 13.544C0.319346 13.5215 0.219453 13.531 0.129706 13.5712C0.098207 13.6309 0.0714321 13.6932 0.0496406 13.7574V13.8398H0L0.0800655 12.8511H0.132108V12.9574C0.128881 12.993 0.134541 13.0288 0.148552 13.0616C0.162564 13.0943 0.184462 13.1228 0.212174 13.1444C0.237794 13.1971 0.316259 13.1971 0.445164 13.2268L1.32588 13.3092V13.6288L1.32188 13.6264ZM1.32188 8.93017V9.06365H1.29626C1.16655 9.01009 1.08889 9.01009 1.03685 9.03646C0.984805 9.03646 0.932763 9.09001 0.907142 9.19629L0.881521 9.24985H0.829478L1.08889 8.5034H1.14013L1.11451 8.58579C1.09897 8.62477 1.09318 8.66714 1.09765 8.70902C1.10213 8.7509 1.11673 8.79096 1.14013 8.82554C1.19604 8.86905 1.25712 8.90505 1.32188 8.93265V8.93017ZM1.32188 9.94356V10.2896L0.932763 10.4231L1.32188 10.5829V10.7436L0.726194 10.503L0.518024 10.6101L0.414739 10.7164C0.382433 10.753 0.363968 10.8004 0.362697 10.8498H0.282631L0.490001 10.2632L1.32188 9.94356Z" fill="white"/>
<path d="M37.2905 22.3731V16.1602H36.8237V21.5468L33.3256 16.1602H32.8853V22.3731H33.3256V16.9873L36.8237 22.3731H37.2905Z" fill="white"/>
<path d="M41.5405 20.373V20.1596C41.5405 18.9064 40.9448 18.1328 39.9079 18.1328V18.5373C40.1322 18.5296 40.3535 18.5915 40.5431 18.7151C40.7326 18.8387 40.8815 19.0182 40.9704 19.2302C41.0745 19.4972 41.1001 19.6035 41.1265 20.0039H39.9079V20.3771L41.5405 20.373ZM39.9079 22.4261H40.0112C40.6854 22.4261 41.0745 22.2127 41.4892 21.7868L41.1778 21.519C40.8143 21.8659 40.53 22.0265 40.0376 22.0265H39.9079V22.4261ZM39.9079 18.1328C38.8711 18.1328 38.2754 18.9328 38.2754 20.2659C38.2754 21.6261 38.8455 22.3726 39.9079 22.4261V22.0265C39.1305 21.973 38.7158 21.3864 38.7158 20.373H39.9079V19.9998H38.7158C38.7158 19.5993 38.7414 19.4931 38.8455 19.2261C38.9406 19.0193 39.0911 18.8446 39.2793 18.7226C39.4674 18.6006 39.6855 18.5363 39.9079 18.5373V18.1328Z" fill="white"/>
<path d="M43.8759 22.3726V21.973H43.5877C43.1473 21.973 42.94 21.7325 42.94 21.2801V18.5061H43.8759V18.1864H42.94V16.8262H42.5252V18.1864H41.9543V18.5061H42.5252V21.2801C42.5252 21.9195 42.8623 22.3726 43.51 22.3726H43.8759Z" fill="white"/>
<path d="M50.6886 18.1865H50.1954L49.1593 21.866L47.9936 18.1865H47.5524L46.3867 21.866L45.3498 18.1865H44.8574L46.1793 22.3727H46.6197L47.7862 18.8794L48.9264 22.3727H49.3667L50.6886 18.1865Z" fill="white"/>
<path d="M54.1083 20.2678C54.1083 19.6548 54.0282 19.0418 53.5903 18.5878C53.4396 18.4373 53.261 18.3196 53.0651 18.2417C52.8692 18.1638 52.66 18.1274 52.4502 18.1347V18.5376C52.6082 18.5318 52.7658 18.5596 52.913 18.6191C53.0603 18.6787 53.194 18.7687 53.3061 18.8836C53.6423 19.2305 53.6687 19.7899 53.6687 20.2702C53.6687 20.7506 53.6423 21.3413 53.3061 21.684C53.1941 21.7991 53.0603 21.8892 52.9131 21.9489C52.7659 22.0086 52.6083 22.0365 52.4502 22.0309V22.4305C52.66 22.4377 52.8692 22.4013 53.0651 22.3235C53.261 22.2456 53.4396 22.1279 53.5903 21.9773C54.0314 21.5192 54.1083 20.8799 54.1083 20.2678ZM52.4502 18.1347C52.027 18.1254 51.6173 18.2882 51.31 18.5878C50.8697 19.0418 50.792 19.6548 50.792 20.2678C50.792 20.8807 50.8721 21.5209 51.31 21.9749C51.6173 22.2745 52.027 22.4373 52.4502 22.428V22.0284C52.2922 22.0341 52.1349 22.0062 51.9879 21.9465C51.8409 21.8868 51.7075 21.7966 51.5958 21.6816C51.258 21.3347 51.2324 20.7481 51.2324 20.2678C51.2324 19.7874 51.258 19.228 51.5958 18.8811C51.7075 18.7662 51.841 18.6761 51.988 18.6166C52.135 18.557 52.2923 18.5293 52.4502 18.5351V18.1347Z" fill="white"/>
<path d="M57.27 18.8533L57.6071 18.5377C57.4749 18.4024 57.3168 18.297 57.1428 18.228C56.9689 18.1591 56.7829 18.1282 56.5967 18.1373C56.1299 18.1373 55.6359 18.3507 55.4045 18.7511V18.1908H54.9641V22.3771H55.4053V19.7867C55.4053 19.1202 55.7944 18.5336 56.4942 18.5336C56.8553 18.5377 57.037 18.6127 57.27 18.8533Z" fill="white"/>
<path d="M61.2348 22.3731L59.5766 19.7334L60.9241 18.1869H60.3797L58.3332 20.5334V16.1602H57.9185V22.3731H58.3332V21.1735L59.2916 20.0531L60.6911 22.3731H61.2348Z" fill="white"/>
<path d="M67.8154 20.3505V16.1602H67.351V20.2936C67.351 21.3334 66.7033 22.0007 65.7185 22.0007C64.7577 22.0007 64.1116 21.3334 64.1116 20.2936V16.1602H63.6448V20.3505C63.6448 21.5772 64.4999 22.4308 65.7185 22.4308C66.9371 22.4308 67.8154 21.5731 67.8154 20.3505Z" fill="white"/>
<path d="M72.2487 22.3731L70.6162 19.7334L71.9637 18.1869H71.3936L69.3727 20.5334V16.1602H68.9324V22.3731H69.3727V21.1735L70.3055 20.0531L71.7307 22.3731H72.2487Z" fill="white"/>
<path d="M75.1767 18.8529L75.4882 18.5332C75.2032 18.2391 74.9173 18.1328 74.5034 18.1328C74.0366 18.1328 73.5426 18.3462 73.3112 18.7466V18.1864H72.8708V22.3726H73.3112V19.7864C73.3112 19.1198 73.7003 18.5332 74.4001 18.5332C74.762 18.5373 74.9413 18.6123 75.1767 18.8529Z" fill="white"/>
<path d="M78.5716 22.3728V19.4892C78.5716 18.6356 78.08 18.1289 76.9911 18.1289H76.9655V18.5376H76.9911C77.8197 18.5376 78.1312 18.8836 78.1312 19.5262V20.0066H76.9655V20.3798H78.1312V20.9128C78.1312 21.2869 78.0511 21.5794 77.8982 21.7128C77.6388 21.9798 77.3281 22.0333 76.9655 22.0333V22.4329C77.5099 22.4329 77.7941 22.2995 78.1312 21.9526V22.3794L78.5716 22.3728ZM76.9655 18.133C76.3177 18.133 75.8766 18.2929 75.5403 18.7732L75.8509 19.0665C76.1104 18.6661 76.3954 18.5334 76.9655 18.5334V18.133ZM76.9655 20H76.8101C75.9294 20 75.3842 20.4531 75.3842 21.2259C75.3799 21.527 75.4814 21.8196 75.67 22.0498C75.9542 22.3159 76.2657 22.423 76.887 22.423H76.9671V22.0234H76.887C76.136 22.0234 75.8253 21.7837 75.8253 21.2226C75.8253 20.636 76.1616 20.3699 76.8614 20.3699H76.9655V20Z" fill="white"/>
<path d="M80.0742 22.3731V18.1869H79.6338V22.3731H80.0742ZM80.1262 16.7204V16.1602H79.585V16.7204H80.1262Z" fill="white"/>
<path d="M84.3507 22.3733V19.68C84.357 19.4687 84.3209 19.2583 84.2449 19.0619C84.1689 18.8654 84.0545 18.6872 83.9087 18.5381C83.6493 18.2712 83.2866 18.1377 82.8207 18.1377C82.3283 18.1377 81.9135 18.3239 81.6277 18.6979V18.1912H81.1865V22.3774H81.6269V19.7599C81.6269 18.9871 82.0424 18.534 82.7678 18.534C83.5188 18.534 83.9079 18.9599 83.9079 19.7599V22.3733H84.3507Z" fill="white"/>
<path d="M88.445 20.373V20.1596C88.445 18.9064 87.8229 18.1328 86.8125 18.1328V18.5373C87.036 18.5333 87.2558 18.5968 87.4447 18.7199C87.6335 18.8431 87.7831 19.0205 87.875 19.2302C87.9791 19.4972 87.9791 19.6035 88.0047 20.0039H86.8125V20.3771L88.445 20.373ZM86.8125 22.4261H86.8926C87.5923 22.4261 87.9815 22.2127 88.3954 21.7868L88.0583 21.519C87.7212 21.8659 87.4114 22.0265 86.9182 22.0265H86.8149L86.8125 22.4261ZM86.8125 18.1328C85.7717 18.1328 85.1536 18.9328 85.1536 20.2659C85.1536 21.6261 85.7244 22.3726 86.8125 22.4261V22.0265C86.0119 21.973 85.5939 21.3864 85.5939 20.373H86.8125V19.9998H85.5939C85.6203 19.5993 85.6203 19.4931 85.7541 19.2261C85.8435 19.0145 85.9925 18.8354 86.1819 18.7119C86.3713 18.5883 86.5924 18.5261 86.8165 18.5332L86.8125 18.1328Z" fill="white"/>
<path d="M35.1656 10.2666H36.4611V10.5863C36.4611 11.3871 35.891 11.9202 35.1656 11.9202C34.9825 11.9243 34.8009 11.8855 34.6345 11.8069C34.468 11.7283 34.3211 11.6118 34.2048 11.4662C33.9478 11.1465 33.8677 10.9579 33.8677 9.68002C33.8677 8.37332 33.9478 8.18712 34.204 7.86745C34.3205 7.72213 34.4674 7.60586 34.6338 7.52737C34.8003 7.44889 34.9818 7.41023 35.1648 7.41431C35.434 7.41719 35.6956 7.5059 35.9137 7.66821C36.1318 7.83053 36.2957 8.05846 36.3826 8.32059H37.3674C37.2763 7.7906 37.0045 7.31146 36.6007 6.96936C36.1969 6.62727 35.6877 6.44469 35.1648 6.45448C34.7674 6.44963 34.3759 6.5531 34.0299 6.75439C33.684 6.95568 33.396 7.2476 33.1952 7.60051C32.9886 7.97373 32.9102 8.16076 32.9102 9.68084C32.9102 11.2009 32.9902 11.3879 33.1952 11.7612C33.4019 12.1066 33.6919 12.3912 34.037 12.5873C34.3821 12.7835 34.7706 12.8846 35.1648 12.8808C36.4346 12.8808 37.4194 11.8922 37.4194 10.6407V9.36035H35.1656V10.2666Z" fill="white"/>
<path d="M38.457 11.7331C38.457 12.557 38.9486 12.8264 39.5972 12.8264H39.9855V11.9737H39.7004C39.4675 11.9737 39.3634 11.8666 39.3634 11.6795V6.50879H38.457V11.7331Z" fill="white"/>
<path d="M42.37 12.8804C43.0698 12.8804 43.4837 12.5871 43.7175 12.3202C44.0802 11.9206 44.2099 11.5465 44.2099 10.59C44.2099 9.60132 44.0802 9.23056 43.7175 8.85981C43.4837 8.59287 43.0698 8.2732 42.37 8.2732V9.17948C42.508 9.18066 42.6441 9.21223 42.7692 9.27206C42.8943 9.33189 43.0055 9.41859 43.0954 9.52634C43.2507 9.76609 43.3027 9.92675 43.3027 10.5925C43.3027 11.2326 43.2507 11.4164 43.0954 11.6594C43.0039 11.7633 42.8918 11.8457 42.7666 11.901C42.6414 11.9563 42.5062 11.9832 42.37 11.9799V12.8804ZM40.5037 10.5867C40.5037 11.5465 40.6598 11.9206 40.9969 12.3169C41.2555 12.5838 41.6702 12.8771 42.37 12.8771V11.9708C42.0593 11.9708 41.7735 11.8374 41.6446 11.6503C41.4628 11.4106 41.4108 11.2236 41.4108 10.5834C41.4108 9.91769 41.4628 9.7595 41.6446 9.51728C41.7325 9.40718 41.8433 9.31885 41.9689 9.2588C42.0945 9.19876 42.2315 9.16855 42.37 9.17042V8.26414C42.1133 8.25829 41.8582 8.30776 41.6212 8.40935C41.3842 8.51094 41.1704 8.66241 40.9937 8.85404C40.6598 9.22809 40.5037 9.60049 40.5037 10.5867Z" fill="white"/>
<path d="M46.9569 12.8528C47.0414 12.8759 47.129 12.8848 47.2163 12.8791C47.7599 12.8791 48.1771 12.6394 48.4085 12.2925C48.6671 11.9728 48.7447 11.6787 48.7447 10.5854C48.7447 9.46574 48.6647 9.17243 48.4085 8.85524C48.2677 8.66883 48.0867 8.51876 47.8797 8.41693C47.6728 8.3151 47.4456 8.26432 47.2163 8.26862C47.1122 8.26862 47.0345 8.29499 46.9569 8.29499V9.17491C47.7863 9.17491 47.8376 9.89499 47.8376 10.5879C47.8376 11.2808 47.7863 11.9753 46.9569 11.9753V12.8528ZM45.1426 12.8256H46.0497V12.3724C46.2935 12.6294 46.6119 12.798 46.9569 12.8528V11.9737H46.9304C46.101 11.9737 46.0497 11.2264 46.0497 10.5862C46.0497 9.92053 46.101 9.17326 46.9304 9.17326H46.9569V8.29334C46.6198 8.37573 46.3348 8.56028 46.0497 8.80003V6.50879H45.1426V12.8256Z" fill="white"/>
<path d="M52.0884 12.826H52.9947V9.7595C52.9947 8.66619 52.2693 8.29297 51.1804 8.2666V9.11933C51.8281 9.11933 52.0884 9.28411 52.0884 9.70677V10.1863H51.1804V10.9327H52.0884V11.2532C52.0884 11.9197 51.8546 12.026 51.1804 12.026V12.8796C51.6472 12.8532 51.9066 12.7148 52.0884 12.4264V12.826ZM51.1804 8.2666H51.1284C50.455 8.2666 49.9626 8.4528 49.6255 8.93313L50.3253 9.46619C50.4806 9.22644 50.7144 9.11933 51.1804 9.11933V8.2666ZM51.1804 10.1863H50.8417C49.8809 10.1863 49.3901 10.7992 49.3901 11.5202C49.3901 12.293 49.9858 12.8796 50.9714 12.8796H51.178V12.0285H51.0979C50.4758 12.0285 50.2436 11.7624 50.2436 11.4683C50.2436 11.1486 50.4758 10.9352 51.0203 10.9352H51.1756L51.1804 10.1863Z" fill="white"/>
<path d="M54.1611 11.7331C54.1611 12.557 54.6535 12.8264 55.3269 12.8264H55.7152V11.9737H55.4053C55.198 11.9737 55.0683 11.8666 55.0683 11.6795V6.50879H54.1611V11.7331Z" fill="white"/>
<path d="M61.8835 11.0665C61.6241 11.6267 61.2093 11.92 60.6913 11.92C60.5052 11.9209 60.3211 11.8808 60.1512 11.8025C59.9814 11.7242 59.8298 11.6095 59.7065 11.4661C59.4735 11.1464 59.3958 10.9602 59.3958 9.67986C59.3958 8.37316 59.4759 8.18696 59.7065 7.86729C59.8298 7.72446 59.9813 7.61026 60.1508 7.53227C60.3203 7.45429 60.504 7.4143 60.6897 7.41498C60.9566 7.41435 61.2167 7.50213 61.4314 7.66535C61.6461 7.82856 61.804 8.05853 61.8819 8.32126H62.8923C62.8016 7.79097 62.5299 7.31143 62.126 6.96901C61.7222 6.62658 61.2129 6.44377 60.6897 6.45349C59.7049 6.45349 59.0083 7.04011 58.7193 7.59953C58.5127 7.97275 58.4351 8.15978 58.4351 9.67986C58.4351 11.1999 58.5151 11.387 58.7193 11.7602C59.0051 12.2932 59.7049 12.8799 60.6897 12.8799C61.7778 12.8799 62.6593 12.2397 62.8923 11.0673L61.8835 11.0665Z" fill="white"/>
<path d="M65.1227 12.8794C65.8217 12.8794 66.2364 12.5861 66.4959 12.3192C66.8329 11.9196 66.9618 11.5456 66.9618 10.589C66.9618 9.60035 66.8329 9.2296 66.4959 8.85885C66.3192 8.66823 66.1058 8.51761 65.8694 8.41661C65.633 8.3156 65.3787 8.26643 65.1227 8.27224V9.17852C65.2604 9.17728 65.3966 9.20779 65.5213 9.26781C65.646 9.32784 65.756 9.41585 65.8433 9.52538C66.0035 9.76513 66.0515 9.92579 66.0515 10.5915C66.0515 11.2317 65.9995 11.4154 65.8433 11.6584C65.7144 11.8455 65.4294 11.9789 65.1227 11.9789V12.8794ZM63.2812 10.5857C63.2812 11.5456 63.411 11.9196 63.748 12.3159C64.0066 12.5828 64.4222 12.8761 65.1219 12.8761V11.9699C64.8105 11.9699 64.5255 11.8364 64.3958 11.6494C64.214 11.4096 64.1628 11.2226 64.1628 10.5824C64.1628 9.91673 64.214 9.75854 64.3958 9.51631C64.4838 9.4062 64.5948 9.31786 64.7205 9.25782C64.8462 9.19779 64.9834 9.16759 65.1219 9.16946V8.26317C64.8659 8.25726 64.6114 8.30637 64.3749 8.40738C64.1383 8.50838 63.9248 8.65906 63.748 8.84978C63.4118 9.22713 63.2821 9.59953 63.2821 10.5857H63.2812Z" fill="white"/>
<path d="M67.9756 12.8265H68.8819V10.1603C68.8819 9.54654 69.2446 9.17167 69.7626 9.17167C70.2807 9.17167 70.6434 9.54489 70.6434 10.1603V12.8265H71.5497V10.1603C71.5497 9.54654 71.9388 9.17167 72.4569 9.17167C72.9493 9.17167 73.3376 9.54489 73.3376 10.1603V12.8265H74.2439V9.83984C74.2469 9.63467 74.2102 9.43094 74.1361 9.24046C74.0619 9.04998 73.9517 8.87656 73.8119 8.73024C73.6721 8.58393 73.5055 8.46764 73.3217 8.38812C73.1378 8.30861 72.9405 8.26745 72.7411 8.26703C72.119 8.26703 71.7042 8.45323 71.3151 8.85365C71.0053 8.53397 70.6938 8.26703 70.0461 8.26703C69.8254 8.26165 69.6064 8.30666 69.4047 8.39884C69.203 8.49101 69.0236 8.62805 68.8795 8.80009V8.32141H67.9756V12.8265Z" fill="white"/>
<path d="M77.2503 12.8527C77.3351 12.8746 77.4225 12.8834 77.5098 12.8791C77.7431 12.8864 77.9749 12.8372 78.1863 12.7353C78.3977 12.6333 78.5829 12.4817 78.7267 12.2925C78.9605 11.9728 79.0382 11.6787 79.0382 10.5854C79.0382 9.4657 78.9581 9.17239 78.7267 8.85519C78.579 8.67056 78.393 8.52212 78.1825 8.42065C77.972 8.31918 77.7422 8.26723 77.5098 8.26858C77.4297 8.26858 77.328 8.29494 77.2503 8.29494V9.17486C78.0798 9.17486 78.1311 9.89494 78.1311 10.5878C78.1311 11.2807 78.0798 11.9753 77.2503 11.9753V12.8527ZM75.4617 14.6653H76.3696V12.3469C76.6282 12.6138 76.9133 12.8 77.2503 12.8535V11.9736C76.3952 11.9736 76.3696 11.2264 76.3696 10.5862C76.3696 9.92049 76.3952 9.17321 77.2503 9.17321V8.2933C76.9122 8.36253 76.604 8.53985 76.3696 8.79999V8.32131H75.4617V14.6653Z" fill="white"/>
<path d="M82.4067 12.826H83.2874V9.7595C83.2874 8.66619 82.562 8.29297 81.4731 8.2666V9.11933C82.1216 9.11933 82.4059 9.28411 82.4059 9.70677V10.1863H81.4731V10.9327H82.4059V11.2532C82.4059 11.9197 82.1472 12.026 81.4731 12.026V12.8796C81.9399 12.8532 82.2249 12.7148 82.3802 12.4264H82.4059L82.4067 12.826ZM81.4739 8.2666H81.4267C80.7781 8.2666 80.2601 8.4528 79.923 8.93313L80.6236 9.46619C80.7781 9.22644 81.0119 9.11933 81.4779 9.11933V8.2666H81.4739ZM81.4739 10.1863H81.1632C80.1784 10.1863 79.686 10.7992 79.686 11.5202C79.686 12.293 80.2825 12.8796 81.2665 12.8796H81.4739V12.0285H81.3938C80.7717 12.0285 80.5387 11.7624 80.5387 11.4683C80.5387 11.1486 80.7981 10.9352 81.317 10.9352H81.4715L81.4739 10.1863Z" fill="white"/>
<path d="M87.0977 11.5202C86.9882 11.6597 86.8502 11.7727 86.6933 11.8511C86.5365 11.9294 86.3649 11.9711 86.1906 11.9733C85.4652 11.9733 85.024 11.5729 85.024 10.5859C85.024 9.59884 85.4652 9.17288 86.1906 9.17288C86.3667 9.17985 86.5392 9.22647 86.6959 9.30946C86.8527 9.39245 86.9898 9.50979 87.0977 9.65321L87.7719 9.0666C87.3827 8.61264 86.8391 8.2666 86.1641 8.2666C85.1281 8.2666 84.1177 8.93313 84.1177 10.5859C84.1177 12.2386 85.1281 12.8796 86.1641 12.8796C86.4706 12.8784 86.7732 12.8086 87.0508 12.675C87.3284 12.5414 87.5745 12.3472 87.7719 12.1059L87.0977 11.5202Z" fill="white"/>
<path d="M88.4452 8.32103H88.0049V9.01475H88.4452V11.7336C88.4452 12.4273 88.912 12.8269 89.5341 12.8269H90.0001V11.9734H89.663C89.4557 11.9734 89.3524 11.891 89.3524 11.6529V9.0164H90.0001V8.32103H89.3532V6.95996H88.446L88.4452 8.32103Z" fill="white"/>
</svg>
